<?xml version="1.0" encoding="UTF-8"?>
<svg width="200" height="200" viewBox="0 0 200 200" version="1.1" xmlns="http://www.w3.org/2000/svg">
    <!-- 背景 -->
    <rect x="0" y="0" width="200" height="200" fill="#ffffff"/>
    
    <!-- 像素化的"巢"字 - 使用更小的方块拼接 -->
    <!-- 外围结构 - 顶部 -->
    <rect x="50" y="40" width="10" height="10" fill="#2196F3"/>
    <rect x="60" y="40" width="10" height="10" fill="#2196F3"/>
    <rect x="70" y="40" width="10" height="10" fill="#2196F3"/>
    <rect x="80" y="40" width="10" height="10" fill="#2196F3"/>
    <rect x="90" y="40" width="10" height="10" fill="#2196F3"/>
    <rect x="100" y="40" width="10" height="10" fill="#2196F3"/>
    <rect x="110" y="40" width="10" height="10" fill="#2196F3"/>
    <rect x="120" y="40" width="10" height="10" fill="#2196F3"/>
    <rect x="130" y="40" width="10" height="10" fill="#2196F3"/>
    <rect x="140" y="40" width="10" height="10" fill="#2196F3"/>

    <!-- 左侧边框 -->
    <rect x="50" y="50" width="10" height="10" fill="#2196F3"/>
    <rect x="50" y="60" width="10" height="10" fill="#2196F3"/>
    <rect x="50" y="70" width="10" height="10" fill="#2196F3"/>
    <rect x="50" y="80" width="10" height="10" fill="#2196F3"/>
    <rect x="50" y="90" width="10" height="10" fill="#2196F3"/>
    <rect x="50" y="100" width="10" height="10" fill="#2196F3"/>
    <rect x="50" y="110" width="10" height="10" fill="#2196F3"/>
    <rect x="50" y="120" width="10" height="10" fill="#2196F3"/>
    <rect x="50" y="130" width="10" height="10" fill="#2196F3"/>
    <rect x="50" y="140" width="10" height="10" fill="#2196F3"/>
    <rect x="50" y="150" width="10" height="10" fill="#2196F3"/>

    <!-- 右侧边框 -->
    <rect x="140" y="50" width="10" height="10" fill="#2196F3"/>
    <rect x="140" y="60" width="10" height="10" fill="#2196F3"/>
    <rect x="140" y="70" width="10" height="10" fill="#2196F3"/>
    <rect x="140" y="80" width="10" height="10" fill="#2196F3"/>
    <rect x="140" y="90" width="10" height="10" fill="#2196F3"/>
    <rect x="140" y="100" width="10" height="10" fill="#2196F3"/>
    <rect x="140" y="110" width="10" height="10" fill="#2196F3"/>
    <rect x="140" y="120" width="10" height="10" fill="#2196F3"/>
    <rect x="140" y="130" width="10" height="10" fill="#2196F3"/>
    <rect x="140" y="140" width="10" height="10" fill="#2196F3"/>
    <rect x="140" y="150" width="10" height="10" fill="#2196F3"/>

    <!-- 底部 -->
    <rect x="60" y="150" width="10" height="10" fill="#2196F3"/>
    <rect x="70" y="150" width="10" height="10" fill="#2196F3"/>
    <rect x="80" y="150" width="10" height="10" fill="#2196F3"/>
    <rect x="90" y="150" width="10" height="10" fill="#2196F3"/>
    <rect x="100" y="150" width="10" height="10" fill="#2196F3"/>
    <rect x="110" y="150" width="10" height="10" fill="#2196F3"/>
    <rect x="120" y="150" width="10" height="10" fill="#2196F3"/>
    <rect x="130" y="150" width="10" height="10" fill="#2196F3"/>

    <!-- 内部结构 - 上部 -->
    <rect x="80" y="60" width="10" height="10" fill="#1976D2"/>
    <rect x="90" y="60" width="10" height="10" fill="#1976D2"/>
    <rect x="100" y="60" width="10" height="10" fill="#1976D2"/>
    <rect x="110" y="60" width="10" height="10" fill="#1976D2"/>

    <!-- 内部结构 - 中部 -->
    <rect x="70" y="70" width="10" height="10" fill="#1976D2"/>
    <rect x="80" y="70" width="10" height="10" fill="#1976D2"/>
    <rect x="110" y="70" width="10" height="10" fill="#1976D2"/>
    <rect x="120" y="70" width="10" height="10" fill="#1976D2"/>

    <rect x="70" y="80" width="10" height="10" fill="#1976D2"/>
    <rect x="120" y="80" width="10" height="10" fill="#1976D2"/>

    <rect x="70" y="90" width="10" height="10" fill="#1976D2"/>
    <rect x="120" y="90" width="10" height="10" fill="#1976D2"/>

    <rect x="70" y="100" width="10" height="10" fill="#1976D2"/>
    <rect x="120" y="100" width="10" height="10" fill="#1976D2"/>

    <rect x="70" y="110" width="10" height="10" fill="#1976D2"/>
    <rect x="120" y="110" width="10" height="10" fill="#1976D2"/>

    <!-- 内部结构 - 下部 -->
    <rect x="70" y="120" width="10" height="10" fill="#1976D2"/>
    <rect x="80" y="120" width="10" height="10" fill="#1976D2"/>
    <rect x="110" y="120" width="10" height="10" fill="#1976D2"/>
    <rect x="120" y="120" width="10" height="10" fill="#1976D2"/>

    <rect x="80" y="130" width="10" height="10" fill="#1976D2"/>
    <rect x="90" y="130" width="10" height="10" fill="#1976D2"/>
    <rect x="100" y="130" width="10" height="10" fill="#1976D2"/>
    <rect x="110" y="130" width="10" height="10" fill="#1976D2"/>

    <!-- 中心结构 -->
    <rect x="90" y="90" width="10" height="10" fill="#0D47A1"/>
    <rect x="100" y="90" width="10" height="10" fill="#0D47A1"/>
    <rect x="90" y="100" width="10" height="10" fill="#0D47A1"/>
    <rect x="100" y="100" width="10" height="10" fill="#0D47A1"/>

    <!-- 装饰性像素 - 角落 -->
    <rect x="40" y="30" width="5" height="5" fill="#64B5F6"/>
    <rect x="155" y="30" width="5" height="5" fill="#64B5F6"/>
    <rect x="40" y="165" width="5" height="5" fill="#64B5F6"/>
    <rect x="155" y="165" width="5" height="5" fill="#64B5F6"/>
</svg> 